HIERARCHY
ROOT Hips
{
	OFFSET 0.000000 0.000000 0.000000
	CHANNELS 6 Xposition Yposition Zposition Xrotation Yrotation Zrotation
	JOINT LeftUpLeg_virtual
	{
		OFFSET 0.000000 0.000000 0.000000
		CHANNELS 3 Xrotation Yrotation Zrotation
		JOINT LeftUpLeg
		{
			OFFSET 13.026900 -6.336304 -1.092800
			CHANNELS 3 Xrotation Yrotation Zrotation
			JOINT LeftLeg
			{
				OFFSET 0.524474 -46.096886 9.782700
				CHANNELS 3 Xrotation Yrotation Zrotation
				JOINT LeftFoot
				{
					OFFSET -0.524474 -53.427422 -12.948200
					CHANNELS 3 Xrotation Yrotation Zrotation
					JOINT LeftToeBase
					{
						OFFSET 0.192200 -14.009700 16.364100
						CHANNELS 3 Xrotation Yrotation Zrotation
						JOINT LeftToe_End
						{
							OFFSET -1.784700 -0.561700 9.474800
							CHANNELS 3 Xrotation Yrotation Zrotation
							End Site
							{
								OFFSET 0 0 0
							}
						}
					}
				}
			}
		}
	}
	JOINT RightUpLeg_virtual
	{
		OFFSET 0.000000 0.000000 0.000000
		CHANNELS 3 Xrotation Yrotation Zrotation
		JOINT RightUpLeg
		{
			OFFSET -12.883000 -6.336304 -1.092800
			CHANNELS 3 Xrotation Yrotation Zrotation
			JOINT RightLeg
			{
				OFFSET -0.524587 -46.096825 9.782800
				CHANNELS 3 Xrotation Yrotation Zrotation
				JOINT RightFoot
				{
					OFFSET 0.524587 -53.427383 -12.948300
					CHANNELS 3 Xrotation Yrotation Zrotation
					JOINT RightToeBase
					{
						OFFSET -0.192200 -14.009700 16.364100
						CHANNELS 3 Xrotation Yrotation Zrotation
						JOINT RightToe_End
						{
							OFFSET 1.784700 -0.561700 9.474800
							CHANNELS 3 Xrotation Yrotation Zrotation
							End Site
							{
								OFFSET 0 0 0
							}
						}
					}
				}
			}
		}
	}
	JOINT Spine_virtual
	{
		OFFSET 0.000000 0.000000 0.000000
		CHANNELS 3 Xrotation Yrotation Zrotation
		JOINT Spine
		{
			OFFSET 0.072000 7.257294 -0.789700
			CHANNELS 3 Xrotation Yrotation Zrotation
			JOINT Spine1
			{
				OFFSET 0.000000 12.508769 -0.658067
				CHANNELS 3 Xrotation Yrotation Zrotation
				JOINT Spine1_split
				{
					OFFSET 0.000000 12.508769 -0.658067
					CHANNELS 3 Xrotation Yrotation Zrotation
					JOINT Spine2
					{
						OFFSET 0.000000 12.508769 -0.658067
						CHANNELS 3 Xrotation Yrotation Zrotation
						JOINT Neck_virtual
						{
							OFFSET 0.000000 0.000000 0.000000
							CHANNELS 3 Xrotation Yrotation Zrotation
							JOINT Neck
							{
								OFFSET 0.000000 14.033295 7.520400
								CHANNELS 3 Xrotation Yrotation Zrotation
								JOINT Head
								{
									OFFSET 0.000000 8.198502 5.703100
									CHANNELS 3 Xrotation Yrotation Zrotation
									JOINT HeadTop_End
									{
										OFFSET 0.000000 17.760803 13.332701
										CHANNELS 3 Xrotation Yrotation Zrotation
										End Site
										{
											OFFSET 0 0 0
										}
									}
								}
							}
						}
						JOINT LeftShoulder_virtual
						{
							OFFSET 0.000000 0.000000 0.000000
							CHANNELS 3 Xrotation Yrotation Zrotation
							JOINT LeftShoulder
							{
								OFFSET 6.292450 5.785301 -0.669000
								CHANNELS 3 Xrotation Yrotation Zrotation
								JOINT LeftShoulder_split
								{
									OFFSET 6.292450 5.785301 -0.669000
									CHANNELS 3 Xrotation Yrotation Zrotation
									JOINT LeftArm
									{
										OFFSET 13.907140 -6.093903 1.965100
										CHANNELS 3 Xrotation Yrotation Zrotation
										JOINT LeftForeArm
										{
											OFFSET 34.140198 0.000000 0.000000
											CHANNELS 3 Xrotation Yrotation Zrotation
											JOINT LeftHand
											{
												OFFSET 40.960209 0.000000 0.000000
												CHANNELS 3 Xrotation Yrotation Zrotation
												End Site
												{
													OFFSET 0 0 0
												}
											}
										}
									}
								}
							}
						}
						JOINT RightShoulder_virtual
						{
							OFFSET 0.000000 0.000000 0.000000
							CHANNELS 3 Xrotation Yrotation Zrotation
							JOINT RightShoulder
							{
								OFFSET -6.292450 5.785301 -0.669000
								CHANNELS 3 Xrotation Yrotation Zrotation
								JOINT RightShoulder_split
								{
									OFFSET -6.292450 5.785301 -0.669000
									CHANNELS 3 Xrotation Yrotation Zrotation
									JOINT RightArm
									{
										OFFSET -13.907140 -6.093903 1.965100
										CHANNELS 3 Xrotation Yrotation Zrotation
										JOINT RightForeArm
										{
											OFFSET -34.140198 0.000000 0.000000
											CHANNELS 3 Xrotation Yrotation Zrotation
											JOINT RightHand
											{
												OFFSET -40.960209 0.000000 0.000000
												CHANNELS 3 Xrotation Yrotation Zrotation
												End Site
												{
													OFFSET 0 0 0
												}
											}
										}
									}
								}
							}
						}
					}
				}
			}
		}
	}
}
MOTION
Frames: 6
Frame Time: 0.03333333
13.228982 117.937401 -3.849335 0.000000 0.000000 0.000000 -0.530312 -18.536637 -2.446173 -11.697091 6.579878 0.045320 17.315484 9.124667 2.611301 -7.328195 18.829792 0.661204 -10.703378 0.000000 0.000000 0.000000 0.000000 0.000000 -0.530312 -18.536637 -2.446173 -14.008703 -7.437206 -11.014635 14.675964 2.410212 2.407564 -11.434532 -3.513157 6.462763 -8.438122 -0.000006 0.000002 0.000000 0.000000 0.000000 -0.530312 -18.536637 -2.446173 4.464627 1.710334 -1.898297 0.263397 0.569447 -0.234718 0.000000 0.000000 0.000000 0.000000 0.000000 0.000000 0.259933 0.575305 -0.235202 -0.614421 0.259446 3.053837 11.190382 11.650975 10.196007 0.000000 0.000000 0.000000 0.259933 0.575305 -0.235202 2.655930 -4.173620 -12.024673 0.000000 0.000000 0.000000 -11.354766 -17.200406 -60.369201 0.000011 -14.732011 0.000009 0.000000 0.000000 0.000000 0.259933 0.575305 -0.235202 2.178415 0.469373 15.702945 0.000000 0.000000 0.000000 6.014224 -0.860595 63.957762 0.000001 14.800960 -0.000013 0.000000 0.000000 0.000000 
13.891813 117.943062 -3.568096 0.000000 0.000000 0.000000 -0.400364 -19.201345 -2.698320 -11.741145 6.529747 -0.098083 17.259939 9.109400 2.650213 -7.373717 19.498954 0.988554 -10.632982 -0.000009 -0.000002 0.000000 0.000000 0.000000 -0.400364 -19.201345 -2.698320 -14.138180 -7.338612 -10.927388 14.492482 2.761986 2.458536 -11.776202 -3.493160 6.036981 -8.407002 0.000001 -0.000006 0.000000 0.000000 0.000000 -0.400364 -19.201345 -2.698320 4.338166 1.261242 -1.983402 0.212745 0.451141 -0.248039 0.000000 0.000000 0.000000 0.000000 0.000000 0.000000 0.209997 0.457550 -0.249457 -0.676047 0.363725 3.241258 11.273843 13.135225 10.728866 0.000000 0.000000 0.000000 0.209997 0.457550 -0.249457 2.666471 -4.458569 -11.991961 0.000000 0.000000 0.000000 -11.925380 -18.438343 -60.942616 0.000004 -15.296897 0.000010 0.000000 0.000000 0.000000 0.209997 0.457550 -0.249457 2.229752 0.129000 15.927385 0.000000 0.000000 0.000000 5.674420 -0.408654 64.436954 0.000008 15.408101 -0.000004 0.000000 0.000000 0.000000 
14.482383 117.965004 -3.305958 0.000000 0.000000 0.000000 -0.220392 -19.787085 -2.907390 -11.803880 6.499050 -0.203432 17.126908 9.093679 2.663031 -7.330241 20.074857 1.276477 -10.562542 0.000007 0.000000 0.000000 0.000000 0.000000 -0.220392 -19.787085 -2.907390 -14.255641 -7.261785 -10.860258 14.265313 2.884288 2.461407 -12.127698 -3.492678 5.754793 -8.375875 0.000003 -0.000001 0.000000 0.000000 0.000000 -0.220392 -19.787085 -2.907390 4.204357 0.735800 -2.137864 0.165080 0.312362 -0.289360 0.000000 0.000000 0.000000 0.000000 0.000000 0.000000 0.163354 0.319510 -0.292050 -0.743324 0.449649 3.455309 11.434275 14.520115 11.315072 0.000000 0.000000 0.000000 0.163354 0.319510 -0.292050 2.633635 -4.716144 -11.762450 0.000000 0.000000 0.000000 -12.145285 -19.959017 -61.514623 -0.000010 -16.226678 -0.000017 0.000000 0.000000 0.000000 0.163354 0.319510 -0.292050 2.301184 -0.222083 16.229414 0.000000 0.000000 0.000000 5.160324 0.078142 64.897801 0.000000 15.935550 0.000009 0.000000 0.000000 0.000000 
15.009595 118.008171 -3.061344 0.000000 0.000000 0.000000 0.091638 -20.334733 -3.056347 -11.974958 6.428101 -0.324493 16.950672 9.075709 2.720627 -7.328550 20.675435 1.547310 -10.492239 -0.000005 -0.000001 0.000000 0.000000 0.000000 0.091638 -20.334733 -3.056347 -14.443470 -7.180915 -10.776115 13.963991 2.910468 2.457041 -12.400846 -3.491749 5.480479 -8.344807 -0.000009 -0.000001 0.000000 0.000000 0.000000 0.091638 -20.334733 -3.056347 3.983039 0.187924 -2.374439 0.108364 0.169809 -0.345939 0.000000 0.000000 0.000000 0.000000 0.000000 0.000000 0.107952 0.177820 -0.350155 -0.816816 0.513497 3.692736 11.709280 15.764155 11.871388 0.000000 0.000000 0.000000 0.107952 0.177820 -0.350155 2.588619 -4.869842 -11.506928 0.000000 0.000000 0.000000 -12.196938 -21.829841 -61.937200 0.000002 -17.471491 0.000003 0.000000 0.000000 0.000000 0.107952 0.177820 -0.350155 2.389268 -0.693200 16.609290 0.000000 0.000000 0.000000 4.537151 0.660915 65.259575 0.000001 16.375652 -0.000016 0.000000 0.000000 0.000000 
15.470580 118.075241 -2.828594 0.000000 0.000000 0.000000 0.531915 -20.837599 -3.198072 -12.266351 6.343214 -0.380136 16.746531 9.056909 2.805461 -7.326180 21.226298 1.782985 -10.422222 0.000002 0.000001 0.000000 0.000000 0.000000 0.531915 -20.837599 -3.198072 -14.656652 -7.103759 -10.619479 13.519635 2.853340 2.478852 -12.501307 -3.482707 5.187693 -8.313881 0.000011 0.000004 0.000000 0.000000 0.000000 0.531915 -20.837599 -3.198072 3.669305 -0.326504 -2.657235 0.048454 0.035352 -0.422423 0.000000 0.000000 0.000000 0.000000 0.000000 0.000000 0.049646 0.044189 -0.428283 -0.885516 0.543029 3.967776 11.917264 16.797590 12.478656 0.000000 0.000000 0.000000 0.049646 0.044189 -0.428283 2.538558 -4.996350 -11.236843 0.000000 0.000000 0.000000 -12.203169 -23.916030 -62.274817 0.000005 -18.845172 0.000005 0.000000 0.000000 0.000000 0.049646 0.044189 -0.428283 2.503075 -1.271402 17.102495 0.000000 0.000000 0.000000 3.843672 1.244929 65.482711 0.000002 16.670670 -0.000000 0.000000 0.000000 0.000000 
15.861903 118.154785 -2.598373 0.000000 0.000000 0.000000 1.010882 -21.252178 -3.322576 -12.576356 6.233697 -0.417953 16.489217 9.040366 2.930318 -7.229962 21.730751 1.946790 -10.352653 -0.000007 0.000001 0.000000 0.000000 0.000000 1.010882 -21.252178 -3.322576 -14.815657 -7.035885 -10.446996 13.006383 2.651833 2.469283 -12.587851 -3.491772 5.054763 -8.283200 0.000007 0.000002 0.000000 0.000000 0.000000 1.010882 -21.252178 -3.322576 3.351229 -0.858259 -3.001422 -0.000236 -0.102652 -0.507738 0.000000 0.000000 0.000000 0.000000 0.000000 0.000000 0.002964 -0.093056 -0.515359 -0.954680 0.553326 4.259101 11.992378 17.660547 13.084542 0.000000 0.000000 0.000000 0.002964 -0.093056 -0.515359 2.475100 -5.227729 -10.890663 0.000000 0.000000 0.000000 -12.060446 -25.828941 -62.657109 0.000008 -20.450445 0.000014 0.000000 0.000000 0.000000 0.002964 -0.093056 -0.515359 2.613132 -1.829997 17.585587 0.000000 0.000000 0.000000 3.121782 1.709670 65.690833 0.000006 16.890757 -0.000016 0.000000 0.000000 0.000000 
